<svg width="111" height="113" viewBox="0 0 111 113" fill="none" xmlns="http://www.w3.org/2000/svg">
<path d="M96.7055 53.1453C96.6921 52.671 96.7487 52.2125 96.8753 51.77C97.0019 51.3274 97.204 50.9023 97.4815 50.4947L99.1451 50.4474L99.1683 51.2659L97.9484 51.4772C97.8123 51.713 97.7089 51.9676 97.6381 52.2408C97.5674 52.5141 97.5365 52.8076 97.5454 53.1214C97.5555 53.478 97.6175 53.7779 97.7315 54.0209C97.8491 54.2674 98.0061 54.4539 98.2024 54.5803C98.3988 54.7068 98.6253 54.7664 98.8821 54.7591C99.121 54.7523 99.3298 54.6893 99.5084 54.57C99.687 54.4507 99.8404 54.2572 99.9684 53.9895C100.1 53.7252 100.211 53.3652 100.302 52.9093C100.411 52.3709 100.564 51.9133 100.761 51.5365C100.961 51.1632 101.206 50.8761 101.496 50.6751C101.791 50.4776 102.13 50.3734 102.515 50.3625C102.922 50.3509 103.289 50.4476 103.616 50.6524C103.943 50.8609 104.205 51.155 104.401 51.5349C104.597 51.9148 104.703 52.3615 104.717 52.875C104.733 53.4206 104.663 53.9044 104.507 54.3264C104.355 54.7519 104.165 55.1034 103.937 55.3812L102.381 55.4253L102.358 54.6069L103.465 54.3988C103.589 54.2347 103.69 54.0319 103.769 53.7906C103.848 53.5492 103.882 53.252 103.872 52.899C103.864 52.5994 103.803 52.337 103.689 52.1119C103.579 51.8866 103.428 51.7124 103.235 51.5894C103.043 51.4664 102.818 51.4085 102.561 51.4158C102.337 51.4222 102.142 51.4848 101.978 51.6037C101.814 51.7261 101.671 51.9193 101.55 52.1833C101.433 52.4507 101.325 52.8053 101.227 53.2471C101.047 54.0731 100.763 54.7021 100.376 55.1343C99.9918 55.5699 99.5075 55.796 98.9227 55.8126C98.5054 55.8245 98.1314 55.7226 97.8005 55.5072C97.4731 55.2916 97.2127 54.9814 97.0192 54.5765C96.8258 54.1751 96.7212 53.698 96.7055 53.1453Z" fill="#2A3739"/>
<path d="M96.373 61.8182C96.4559 61.3003 96.6478 60.8686 96.9488 60.5229C97.2533 60.1778 97.6374 59.934 98.101 59.7914C98.5646 59.6488 99.0782 59.6226 99.6418 59.7128L99.8638 59.7483C100.406 59.8351 100.876 60.0151 101.273 60.2882C101.67 60.5613 101.963 60.9098 102.152 61.3338C102.34 61.7578 102.392 62.2358 102.307 62.7677C102.233 63.2292 102.093 63.6205 101.886 63.9414C101.679 64.266 101.424 64.5251 101.122 64.7188L99.7443 64.5254L99.8745 63.7116L100.902 63.6918C101.044 63.5918 101.167 63.4578 101.27 63.29C101.372 63.1222 101.443 62.9167 101.482 62.6737C101.532 62.3637 101.484 62.076 101.338 61.8107C101.192 61.5488 100.977 61.3282 100.691 61.1489C100.405 60.9695 100.074 60.8496 99.6972 60.7893L99.4753 60.7538C99.0596 60.6873 98.6889 60.6894 98.3633 60.7601C98.0371 60.8344 97.7714 60.9707 97.5662 61.1691C97.364 61.3716 97.2378 61.6296 97.1876 61.9431C97.1313 62.2954 97.1813 62.6033 97.3379 62.8668C97.4944 63.1303 97.7376 63.3155 98.0673 63.4225L97.9176 64.3577L97.8842 64.3632C97.5594 64.2932 97.2685 64.1473 97.0113 63.9255C96.7542 63.7037 96.5637 63.4149 96.44 63.0591C96.3193 62.7074 96.2969 62.2937 96.373 61.8182Z" fill="#2A3739"/>
<path d="M95.7427 66.1265L96.3843 66.3337L96.2588 67.2099L100.195 68.4811L100.606 67.6971L101.253 67.9059L100.695 69.6322L99.9644 69.4919L99.8644 69.4708C100.096 69.718 100.254 69.981 100.341 70.26C100.426 70.5424 100.42 70.8313 100.325 71.1266C100.291 71.2319 100.246 71.3355 100.191 71.4376C100.138 71.5441 100.095 71.6184 100.063 71.6605L99.1735 71.2271L99.4395 70.5426C99.542 70.2833 99.5527 70.0412 99.4716 69.8163C99.3939 69.5926 99.2556 69.3942 99.0565 69.2212L95.9349 68.2131L95.5242 68.9971L94.8826 68.7899L95.7427 66.1265Z" fill="#2A3739"/>
<path d="M92.6616 74.0714C92.9026 73.5936 93.2222 73.2373 93.6203 73.0026C94.0199 72.7727 94.4647 72.6634 94.9544 72.6747C95.4474 72.6876 95.9487 72.8225 96.4583 73.0796L96.5634 73.1326C97.0731 73.3897 97.478 73.7118 97.7782 74.099C98.0816 74.4877 98.2596 74.9112 98.3122 75.3693C98.3632 75.8305 98.2698 76.2969 98.032 76.7683C97.791 77.2461 97.4707 77.6 97.071 77.8299C96.6697 78.063 96.2242 78.1739 95.7344 78.1626C95.2447 78.1513 94.7434 78.0163 94.2305 77.7577L94.1254 77.7047C93.6126 77.446 93.2045 77.1223 92.9011 76.7335C92.6009 76.3463 92.4261 75.9245 92.3767 75.468C92.3272 75.0115 92.4222 74.546 92.6616 74.0714ZM93.3974 74.4425C93.2464 74.742 93.2015 75.033 93.2627 75.3156C93.3255 75.603 93.473 75.8692 93.705 76.1141C93.9387 76.3638 94.2371 76.5802 94.6002 76.7634L94.7053 76.8164C95.0684 76.9996 95.4183 77.1101 95.7548 77.148C96.0929 77.1907 96.3945 77.151 96.6598 77.0291C96.9283 76.9088 97.1388 76.6973 97.2915 76.3947C97.4425 76.0953 97.4866 75.8019 97.4238 75.5145C97.3642 75.2287 97.2167 74.9625 96.9815 74.716C96.7494 74.4711 96.4518 74.257 96.0887 74.0739L95.9836 74.0209C95.6204 73.8377 95.2698 73.7248 94.9317 73.6821C94.5968 73.641 94.2952 73.6807 94.0267 73.801C93.7598 73.9261 93.55 74.1399 93.3974 74.4425Z" fill="#2A3739"/>
<path d="M90.6761 77.999L91.2346 78.3768L90.87 79.1832L96.4149 82.9343L97.0277 82.2958L97.5906 82.6766L96.5112 84.2722L90.2793 80.0564L89.6664 80.6949L89.1079 80.3171L90.6761 77.999Z" fill="#2A3739"/>
<path d="M88.4357 81.2768L88.956 81.7056L88.5169 82.4741L93.6832 86.7315L94.3536 86.1537L94.878 86.5859L93.6529 88.0726L87.8465 83.2876L87.1761 83.8655L86.6557 83.4367L88.4357 81.2768Z" fill="#2A3739"/>
<path d="M84.0841 86.468L84.4968 87.0012L83.8988 87.6536L87.6557 92.5075L88.4372 92.0921L88.8532 92.6295L88.1634 93.1634L86.4411 94.4966C85.8966 94.918 85.3222 95.1551 84.7179 95.2078C84.1107 95.2627 83.5185 95.1504 82.9412 94.8709C82.364 94.5913 81.8493 94.1596 81.3973 93.5756L81.2958 93.4444C80.8547 92.8745 80.5659 92.277 80.4294 91.6518C80.295 91.0295 80.3255 90.4307 80.5209 89.8554C80.7156 89.2851 81.0852 88.7893 81.6297 88.3678L84.0841 86.468ZM83.0651 88.2989L82.1764 88.9868C81.7871 89.2881 81.5347 89.6527 81.4191 90.0804C81.3058 90.511 81.3119 90.9619 81.4376 91.4331C81.5625 91.9093 81.7932 92.3647 82.1294 92.7991L82.2375 92.9388C82.5847 93.3874 82.971 93.729 83.3963 93.9637C83.821 94.2035 84.2526 94.3182 84.6913 94.308C85.1301 94.2978 85.5441 94.142 85.9334 93.8406L86.8221 93.1528L83.0651 88.2989Z" fill="#2A3739"/>
<path d="M74.538 92.9599C75.0154 92.7181 75.4839 92.6207 75.9437 92.6678C76.4018 92.7196 76.8248 92.8953 77.2124 93.1948C77.6017 93.4975 77.9254 93.9034 78.1833 94.4126L78.2365 94.5176C78.4945 95.0268 78.6295 95.5263 78.6417 96.0161C78.6554 96.509 78.5477 96.9555 78.3184 97.3556C78.086 97.7573 77.7343 98.0774 77.2633 98.316C76.7859 98.5578 76.3181 98.6528 75.8599 98.601C75.3986 98.5508 74.9741 98.3759 74.5864 98.0764C74.1987 97.7769 73.8751 97.3709 73.6155 96.8585L73.5623 96.7535C73.3027 96.2411 73.1661 95.7385 73.1523 95.2456C73.1402 94.7558 73.2495 94.3125 73.4804 93.9156C73.7113 93.5187 74.0638 93.2001 74.538 92.9599ZM74.9104 93.6951C74.6112 93.8466 74.4025 94.0543 74.2842 94.3182C74.1644 94.5869 74.1253 94.8886 74.1669 95.2235C74.207 95.5631 74.319 95.9143 74.5027 96.2771L74.5559 96.3821C74.7397 96.745 74.9559 97.0414 75.2044 97.2714C75.4513 97.5063 75.7177 97.6532 76.0037 97.7124C76.2912 97.7747 76.5861 97.7292 76.8884 97.5761C77.1876 97.4245 77.3971 97.2144 77.5169 96.9458C77.6384 96.6803 77.6775 96.3785 77.6342 96.0405C77.5926 95.7057 77.4799 95.3569 77.2961 94.994L77.2429 94.889C77.0591 94.5262 76.8437 94.2274 76.5968 93.9926C76.3515 93.7609 76.085 93.6139 75.7975 93.5516C75.5084 93.4941 75.2127 93.5419 74.9104 93.6951Z" fill="#2A3739"/>
<path d="M68.9029 95.6239L71.755 100.045L72.3982 99.9391L72.5852 100.593L70.2855 101.251L70.0985 100.597L70.7503 100.288L69.1899 97.7349L68.8265 97.1265L68.7956 97.1353L68.7578 97.8586L68.5621 101.744L67.7081 101.989L65.5453 98.7894L65.0745 98.0781L65.0436 98.087L65.0257 98.9382L65.0412 101.928L65.7718 101.836L65.9589 102.49L63.7106 103.133L63.5236 102.48L64.1159 102.216L64.1749 96.9775L65.137 96.7021L67.221 99.7235L67.7448 100.542L67.7742 100.528L67.7818 99.563L68.0334 95.8729L68.9029 95.6239Z" fill="#2A3739"/>
<path d="M62.0081 97.4684L62.0687 98.1399L61.2134 98.3676L61.5853 102.487L62.4675 102.558L62.5286 103.235L60.7219 103.398L60.5698 102.547C60.4055 102.87 60.187 103.128 59.9143 103.321C59.6383 103.517 59.3156 103.633 58.9461 103.666C58.3243 103.722 57.8263 103.583 57.4522 103.247C57.0784 102.916 56.8571 102.37 56.7885 101.609L56.534 98.79L55.6518 98.7192L55.5912 98.0476L58.3786 97.796L58.4392 98.4676L57.5839 98.6952L57.8365 101.493C57.8824 102.001 58.0162 102.353 58.238 102.548C58.4562 102.743 58.7714 102.822 59.1835 102.785C59.4856 102.758 59.7472 102.661 59.9686 102.494C60.1864 102.327 60.3532 102.111 60.469 101.847L60.1635 98.4624L59.2813 98.3916L59.2207 97.72L62.0081 97.4684Z" fill="#2A3739"/>
<path d="M47.1336 97.0474L46.8867 98.0998L45.8604 97.8591L46.1073 96.8067L47.1336 97.0474Z" fill="#2A3739"/>
<path d="M39.5102 94.5327C39.9385 94.7369 40.3208 94.9962 40.657 95.3106C40.9933 95.625 41.2795 95.9986 41.5159 96.4314L40.7997 97.9337L40.0606 97.5814L40.4286 96.3992C40.2807 96.1706 40.1012 95.9625 39.8902 95.775C39.6793 95.5875 39.4321 95.4262 39.1487 95.2911C38.8267 95.1376 38.5315 95.0562 38.2632 95.0468C37.9902 95.0392 37.7527 95.0939 37.5506 95.211C37.3486 95.3281 37.1923 95.5026 37.0818 95.7345C36.9789 95.9503 36.9399 96.1648 36.9646 96.3782C36.9894 96.5915 37.0917 96.8162 37.2717 97.0522C37.4469 97.2899 37.7168 97.5529 38.0812 97.8412C38.5105 98.1842 38.8481 98.5289 39.094 98.8754C39.3351 99.2235 39.4789 99.5726 39.5254 99.9228C39.5671 100.275 39.5051 100.625 39.3393 100.972C39.1643 101.339 38.9111 101.622 38.5797 101.82C38.2451 102.016 37.864 102.115 37.4364 102.116C37.0087 102.118 36.5631 102.008 36.0993 101.787C35.6066 101.552 35.2079 101.269 34.9033 100.938C34.5939 100.609 34.3675 100.28 34.2241 99.9507L34.8942 98.545L35.6333 98.8974L35.3137 99.9781C35.4033 100.163 35.5376 100.346 35.7166 100.526C35.8955 100.706 36.1443 100.872 36.4632 101.024C36.7337 101.153 36.995 101.218 37.2472 101.22C37.4978 101.225 37.7217 101.17 37.919 101.054C38.1163 100.939 38.2703 100.765 38.3808 100.533C38.4775 100.33 38.5104 100.129 38.4795 99.9281C38.4454 99.7261 38.3384 99.5111 38.1586 99.2831C37.974 99.0568 37.7075 98.7993 37.359 98.5107C36.7058 97.974 36.2752 97.4348 36.0671 96.8929C35.8543 96.3528 35.8738 95.8186 36.1255 95.2905C36.3052 94.9137 36.5663 94.6272 36.9088 94.4308C37.2499 94.2377 37.6447 94.1473 38.0934 94.1596C38.5388 94.1704 39.0111 94.2947 39.5102 94.5327Z" fill="#2A3739"/>
<path d="M31.9026 90.2535C32.3255 90.5635 32.6221 90.9313 32.7923 91.3569C32.9604 91.7853 33.0021 92.2383 32.9175 92.7159C32.8328 93.1935 32.6217 93.6624 32.2843 94.1228L32.1514 94.3041C31.8266 94.7472 31.4521 95.0831 31.0279 95.3118C30.6037 95.5405 30.1599 95.6421 29.6965 95.6165C29.2331 95.5908 28.7842 95.4188 28.3497 95.1003C27.9728 94.824 27.6887 94.5207 27.4974 94.1902C27.3032 93.8577 27.1889 93.5129 27.1543 93.1558L27.9553 92.0178L28.6199 92.505L28.1687 93.4283C28.1927 93.6007 28.256 93.7709 28.3584 93.9389C28.4609 94.1069 28.6114 94.2637 28.8099 94.4092C29.0631 94.5948 29.3409 94.6835 29.6434 94.6751C29.943 94.6647 30.2377 94.5734 30.5277 94.4011C30.8176 94.2288 31.0755 93.9887 31.3011 93.6808L31.434 93.4996C31.6829 93.16 31.8502 92.8293 31.9358 92.5072C32.0186 92.1831 32.0186 91.8844 31.9356 91.6114C31.8477 91.339 31.6758 91.109 31.4197 90.9213C31.1319 90.7104 30.8351 90.6144 30.5292 90.6335C30.2233 90.6525 29.9475 90.7844 29.7019 91.0289L28.938 90.469L28.9483 90.4367C29.1589 90.1797 29.4215 89.9874 29.7362 89.8598C30.0509 89.7322 30.3948 89.6945 30.7678 89.7468C31.1359 89.7998 31.5141 89.9687 31.9026 90.2535Z" fill="#2A3739"/>
<path d="M28.3551 87.7283L27.8783 88.2051L27.1556 87.6943L24.2305 90.6193L24.7414 91.342L24.2608 91.8226L22.9781 90.5398L23.4359 89.9533L23.5002 89.8738C23.1748 89.9672 22.8683 89.9886 22.5807 89.9382C22.2906 89.8852 22.0358 89.749 21.8164 89.5295C21.7382 89.4513 21.6663 89.3643 21.6007 89.2684C21.5301 89.1725 21.4834 89.1006 21.4607 89.0527L22.2515 88.4586L22.7397 89.0073C22.9238 89.2167 23.1345 89.3365 23.3716 89.3668C23.6062 89.3996 23.8458 89.3668 24.0905 89.2684L26.4101 86.9488L25.8993 86.2261L26.3761 85.7493L28.3551 87.7283Z" fill="#2A3739"/>
<path d="M22.7299 81.4377C23.0478 81.8682 23.2219 82.314 23.2521 82.7751C23.2772 83.2356 23.1744 83.6818 22.9437 84.114C22.71 84.5482 22.3636 84.9349 21.9045 85.2741L21.8098 85.344C21.3507 85.6832 20.8806 85.8995 20.3998 85.993C19.916 86.0887 19.4578 86.0568 19.0251 85.8974C18.5903 85.7351 18.2161 85.4416 17.9024 85.0169C17.5844 84.5864 17.4129 84.141 17.3877 83.6806C17.3604 83.2173 17.4621 82.7696 17.6929 82.3375C17.9237 81.9053 18.2701 81.5186 18.7321 81.1773L18.8268 81.1074C19.2888 80.7661 19.7617 80.5477 20.2454 80.452C20.7263 80.3585 21.1817 80.3925 21.6115 80.5541C22.0413 80.7156 22.4141 81.0102 22.7299 81.4377ZM22.067 81.9274C21.8678 81.6576 21.6282 81.4864 21.3483 81.4137C21.0634 81.3403 20.7594 81.352 20.4362 81.4488C20.1079 81.5449 19.7803 81.7137 19.4531 81.9554L19.3584 82.0253C19.0313 82.267 18.775 82.5294 18.5896 82.8128C18.3991 83.0954 18.2986 83.3826 18.2879 83.6743C18.2743 83.9682 18.3682 84.2514 18.5696 84.5241C18.7688 84.7938 19.0109 84.9654 19.2958 85.0388C19.5778 85.1144 19.8818 85.1027 20.2079 85.0037C20.5311 84.9069 20.8563 84.7377 21.1834 84.4961L21.2781 84.4261C21.6053 84.1845 21.8641 83.9224 22.0545 83.6398C22.2421 83.3593 22.3426 83.0721 22.3562 82.7782C22.3648 82.4836 22.2684 82.2 22.067 81.9274Z" fill="#2A3739"/>
<path d="M20.097 77.8559L19.5066 78.1816L18.9541 77.4902L13.0923 80.7237L13.3824 81.5599L12.7874 81.8881L11.8568 80.2013L18.4449 76.5671L18.1548 75.7309L18.7452 75.4052L20.097 77.8559Z" fill="#2A3739"/>
<path d="M18.2192 74.4281L17.6012 74.6977L17.115 73.9581L10.9789 76.6348L11.1904 77.4942L10.5674 77.766L9.79716 76.0002L16.6935 72.9918L16.4821 72.1324L17.1001 71.8628L18.2192 74.4281Z" fill="#2A3739"/>
<path d="M15.556 68.1863L14.8932 68.3101L14.5857 67.4802L8.55206 68.6072L8.56492 69.4921L7.89685 69.6169L7.7367 68.7594L7.33682 66.6185C7.2104 65.9416 7.26168 65.3223 7.49065 64.7606C7.71896 64.1953 8.08922 63.7197 8.60144 63.3337C9.11365 62.9477 9.73272 62.6869 10.4587 62.5513L10.6217 62.5208C11.3301 62.3885 11.9936 62.4043 12.6122 62.5682C13.2272 62.7328 13.7461 63.0333 14.1687 63.4697C14.5872 63.9033 14.8597 64.4585 14.9861 65.1353L15.556 68.1863ZM14.3922 66.4439L14.1858 65.3392C14.0954 64.8553 13.8863 64.4643 13.5584 64.1662C13.2271 63.8688 12.8231 63.6684 12.3465 63.5651C11.8658 63.4589 11.3553 63.4563 10.8153 63.5571L10.6417 63.5896C10.0841 63.6937 9.60379 63.8814 9.2008 64.1527C8.79364 64.421 8.49448 64.7527 8.30333 65.1477C8.11217 65.5427 8.06178 65.9822 8.15218 66.4662L8.35851 67.5709L14.3922 66.4439Z" fill="#2A3739"/>
<path d="M14.1239 56.6677C14.1218 57.2028 13.9952 57.6643 13.744 58.0522C13.4892 58.4365 13.1402 58.7331 12.697 58.9419C12.2503 59.1506 11.7415 59.2539 11.1707 59.2517L11.0529 59.2512C10.4821 59.249 9.97595 59.1418 9.53439 58.9296C9.08926 58.7174 8.74079 58.4182 8.48898 58.0319C8.23719 57.6421 8.11231 57.1832 8.11435 56.6552C8.11641 56.12 8.24484 55.6603 8.49962 55.276C8.75442 54.8881 9.10341 54.5898 9.54659 54.381C9.98978 54.1722 10.4986 54.069 11.0729 54.0712L11.1907 54.0716C11.765 54.0738 12.2748 54.1811 12.7199 54.3933C13.1615 54.6055 13.5064 54.9047 13.7546 55.2909C14.0029 55.6772 14.126 56.1361 14.1239 56.6677ZM13.2998 56.6645C13.3011 56.3291 13.2112 56.0487 13.0301 55.8233C12.8455 55.5942 12.5946 55.422 12.2776 55.3066C11.957 55.1877 11.5933 55.1274 11.1866 55.1258L11.0689 55.1254C10.6622 55.1238 10.2998 55.1813 9.98187 55.2978C9.66035 55.4107 9.40818 55.581 9.22535 55.8086C9.03896 56.0362 8.94511 56.3195 8.9438 56.6584C8.94251 56.9937 9.03417 57.2759 9.2188 57.505C9.39987 57.734 9.65072 57.9062 9.97135 58.0216C10.2884 58.137 10.6503 58.1955 11.057 58.197L11.1747 58.1975C11.5814 58.1991 11.9455 58.1434 12.2671 58.0305C12.585 57.9175 12.8372 57.7472 13.0236 57.5196C13.2064 57.2885 13.2985 57.0034 13.2998 56.6645Z" fill="#2A3739"/>
<path d="M14.3105 50.3898L9.07618 50.9245L8.8789 51.5457L8.2118 51.4159L8.66895 49.0679L9.33605 49.1978L9.31559 49.9189L12.2992 49.6875L13.0063 49.6398L13.0124 49.6083L12.3851 49.2462L9.01156 47.3082L9.18133 46.4363L13.0138 45.9613L13.8613 45.8646L13.8674 45.8331L13.1171 45.4307L10.4455 44.0874L10.1961 44.7802L9.52905 44.6504L9.97597 42.3549L10.6431 42.4848L10.6096 43.1325L15.2503 45.5626L15.0591 46.5448L11.4208 47.0304L10.4537 47.1256L10.4528 47.1582L11.3094 47.603L14.4833 49.5021L14.3105 50.3898Z" fill="#2A3739"/>
<path d="M15.7173 43.624L15.0915 43.373L15.2772 42.5076L11.4379 40.9677L10.9741 41.7215L10.3434 41.4685L11.0187 39.7848L11.8462 40.036C11.6332 39.743 11.5026 39.4312 11.4546 39.1005C11.4046 38.7653 11.4486 38.4255 11.5867 38.0811C11.8191 37.5017 12.1696 37.1214 12.6382 36.9403C13.1034 36.7579 13.6903 36.8088 14.3989 37.093L17.0263 38.1469L17.4901 37.3931L18.1159 37.6441L17.074 40.2417L16.4482 39.9907L16.6338 39.1253L14.0263 38.0794C13.5528 37.8895 13.1789 37.8491 12.9045 37.9581C12.6315 38.0639 12.4179 38.3088 12.2639 38.6929C12.151 38.9743 12.1186 39.2516 12.1667 39.5245C12.2161 39.7942 12.3325 40.0408 12.5158 40.2642L15.6696 41.5292L16.1334 40.7754L16.7592 41.0264L15.7173 43.624Z" fill="#2A3739"/>
<path d="M23.6373 29.247L22.8195 28.5401L23.5088 27.7425L24.3266 28.4494L23.6373 29.247Z" fill="#2A3739"/>
<path d="M29.418 23.6129C29.0394 23.899 28.6332 24.1188 28.1992 24.2723C27.7652 24.4259 27.3017 24.5078 26.8087 24.5182L25.8053 23.1904L26.4586 22.6968L27.3383 23.568C27.6093 23.5421 27.8767 23.4786 28.1403 23.3778C28.4039 23.2769 28.661 23.1319 28.9114 22.9426C29.1961 22.7275 29.4043 22.5031 29.5362 22.2693C29.6687 22.0305 29.7296 21.7944 29.7188 21.5611C29.7079 21.3279 29.6251 21.1087 29.4702 20.9038C29.3261 20.7131 29.1536 20.5796 28.9529 20.5033C28.7521 20.427 28.5055 20.4143 28.2132 20.4653C27.9215 20.5113 27.5638 20.6296 27.1399 20.8203C26.6377 21.0433 26.1762 21.1841 25.7554 21.2427C25.3354 21.2963 24.9592 21.2631 24.627 21.143C24.2955 21.0179 24.0136 20.8017 23.7813 20.4943C23.5361 20.1698 23.402 19.815 23.3792 19.4298C23.3593 19.0424 23.4471 18.6586 23.6426 18.2783C23.8382 17.898 24.1409 17.5529 24.5507 17.2432C24.9862 16.9141 25.421 16.6906 25.8551 16.5727C26.2899 16.4499 26.6864 16.4006 27.0447 16.425L27.9836 17.6674L27.3304 18.161L26.5184 17.3795C26.3129 17.3738 26.089 17.4088 25.8466 17.4846C25.6043 17.5604 25.3423 17.7048 25.0605 17.9178C24.8214 18.0984 24.643 18.3003 24.5254 18.5233C24.4056 18.7435 24.3515 18.9678 24.363 19.1961C24.3746 19.4244 24.4578 19.641 24.6126 19.8459C24.7482 20.0252 24.912 20.1473 25.1042 20.2123C25.2992 20.2751 25.5393 20.2792 25.8245 20.2246C26.1104 20.1651 26.4617 20.0471 26.8785 19.8708C27.6557 19.5383 28.3327 19.4046 28.9095 19.4696C29.487 19.5295 29.9521 19.7929 30.3048 20.2597C30.5565 20.5927 30.6905 20.9565 30.7069 21.351C30.7212 21.7426 30.6195 22.1347 30.4019 22.5272C30.1871 22.9176 29.8592 23.2795 29.418 23.6129Z" fill="#2A3739"/>
<path d="M36.6644 18.8517C36.1944 19.0844 35.7314 19.1783 35.2753 19.1334C34.8176 19.0853 34.3962 18.9137 34.0113 18.6186C33.6264 18.3235 33.3073 17.9202 33.054 17.4086L32.9543 17.2072C32.7105 16.7149 32.5848 16.2277 32.5772 15.7459C32.5695 15.264 32.6837 14.8233 32.9198 14.4238C33.1559 14.0243 33.5154 13.705 33.9982 13.466C34.417 13.2586 34.8171 13.1461 35.1985 13.1285C35.5831 13.1093 35.9418 13.1665 36.2748 13.3003L36.916 14.5353L36.1775 14.901L35.5657 14.0753C35.4016 14.0172 35.2214 13.9949 35.0251 14.0085C34.8288 14.0221 34.6204 14.0835 34.3997 14.1927C34.1184 14.332 33.9118 14.5378 33.7799 14.8101C33.6511 15.0808 33.5965 15.3845 33.6159 15.7213C33.6353 16.058 33.7297 16.3974 33.8991 16.7395L33.9988 16.9409C34.1856 17.3182 34.4021 17.619 34.6486 17.8433C34.8982 18.0661 35.1633 18.2036 35.4439 18.2557C35.7261 18.3031 36.0095 18.2564 36.294 18.1155C36.6137 17.9572 36.8356 17.7379 36.9595 17.4576C37.0835 17.1773 37.0935 16.8718 36.9895 16.5411L37.8383 16.1209L37.8622 16.1449C37.9934 16.4502 38.0432 16.7718 38.0115 17.11C37.9799 17.4481 37.855 17.7707 37.6368 18.0777C37.4202 18.38 37.0961 18.638 36.6644 18.8517Z" fill="#2A3739"/>
<path d="M40.4829 16.8749L40.2796 16.232L41.0661 15.8262L39.8189 11.8821L38.9421 12.0022L38.7372 11.3542L40.4669 10.8073L40.7763 11.4839L40.8171 11.5777C40.8843 11.2459 41.0066 10.964 41.1839 10.732C41.3647 10.499 41.603 10.3357 41.899 10.2422C42.0044 10.2088 42.1148 10.1851 42.2301 10.1711C42.3477 10.1526 42.433 10.1444 42.486 10.1463L42.6486 11.122L41.9367 11.3022C41.666 11.3691 41.4626 11.5008 41.3264 11.6973C41.1891 11.8903 41.1078 12.1181 41.0823 12.3806L42.0713 15.5083L42.9482 15.3882L43.1514 16.0311L40.4829 16.8749Z" fill="#2A3739"/>
<path d="M48.5484 14.7932C48.0196 14.8753 47.5439 14.8228 47.1213 14.6356C46.7017 14.4445 46.354 14.1464 46.0782 13.7416C45.8018 13.3332 45.6198 12.847 45.5322 12.2829L45.5141 12.1666C45.4266 11.6026 45.4528 11.0858 45.593 10.6164C45.7326 10.1434 45.9733 9.75224 46.3152 9.44284C46.6606 9.13288 47.0941 8.9374 47.6159 8.8564C48.1447 8.7743 48.6189 8.82885 49.0385 9.02004C49.4616 9.21068 49.8111 9.50843 50.0869 9.91328C50.3628 10.3181 50.5448 10.8043 50.6329 11.3719L50.651 11.4883C50.7391 12.0558 50.7134 12.5761 50.5738 13.0491C50.4336 13.5185 50.1924 13.9061 49.8499 14.212C49.5075 14.5179 49.0737 14.7116 48.5484 14.7932ZM48.422 13.9788C48.7534 13.9274 49.0161 13.7945 49.2103 13.5802C49.4075 13.3619 49.5381 13.0871 49.6022 12.7558C49.6693 12.4205 49.6716 12.0519 49.6092 11.65L49.5912 11.5336C49.5288 11.1318 49.4151 10.783 49.25 10.4873C49.088 10.1875 48.8802 9.96525 48.6266 9.82048C48.3725 9.67219 48.078 9.62405 47.7431 9.67604C47.4118 9.72749 47.1475 9.86238 46.9503 10.0807C46.7526 10.2955 46.622 10.5704 46.5584 10.9051C46.4943 11.2364 46.4935 11.603 46.5559 12.0049L46.5739 12.1212C46.6363 12.5231 46.7486 12.8739 46.9106 13.1737C47.0721 13.4699 47.2799 13.6922 47.534 13.8405C47.7911 13.9847 48.0871 14.0308 48.422 13.9788Z" fill="#2A3739"/>
<path d="M53.1026 14.09L53.087 13.4159L53.9556 13.2459L53.8006 6.55318L52.925 6.42358L52.9093 5.74414L54.8353 5.69953L55.0095 13.2215L55.885 13.3511L55.9006 14.0252L53.1026 14.09Z" fill="#2A3739"/>
<path d="M57.2168 14.0102L57.2661 13.3377L58.147 13.2522L58.6373 6.57562L57.7783 6.36231L57.8281 5.68451L59.7494 5.82559L59.1984 13.3294L60.0574 13.5427L60.008 14.2151L57.2168 14.0102Z" fill="#2A3739"/>
<path d="M63.7457 14.4855L63.9417 13.8403L64.8198 13.9505L66.604 8.07755L65.8129 7.68063L66.0105 7.03036L66.8451 7.28391L68.929 7.917C69.5879 8.11714 70.1136 8.44838 70.5064 8.91071C70.9025 9.37409 71.1536 9.92204 71.2598 10.5546C71.3659 11.1871 71.3116 11.8567 71.0969 12.5633L71.0487 12.722C70.8393 13.4115 70.5191 13.9929 70.0883 14.466C69.6585 14.9357 69.1525 15.2574 68.5703 15.431C67.9925 15.6023 67.3742 15.5878 66.7154 15.3877L63.7457 14.4855ZM65.8285 14.2569L66.9038 14.5836C67.3748 14.7267 67.8182 14.7216 68.2339 14.5682C68.6507 14.4115 69.0149 14.1455 69.3264 13.7704C69.6425 13.3929 69.8803 12.9413 70.04 12.4156L70.0914 12.2466C70.2562 11.7039 70.3113 11.1911 70.2566 10.7085C70.2064 10.2234 70.0501 9.80493 69.7879 9.45308C69.5257 9.10123 69.159 8.85375 68.6879 8.71064L67.6127 8.38398L65.8285 14.2569Z" fill="#2A3739"/>
<path d="M74.6795 18.5312C74.2062 18.2814 73.8559 17.9554 73.6286 17.553C73.4061 17.1491 73.305 16.7025 73.3253 16.213C73.3473 15.7204 73.4915 15.2216 73.7579 14.7168L73.8129 14.6127C74.0793 14.1079 74.4088 13.709 74.8015 13.416C75.1958 13.1199 75.6224 12.9497 76.0814 12.9055C76.5435 12.863 77.0081 12.965 77.475 13.2114C77.9483 13.4612 78.2962 13.788 78.5187 14.1919C78.7444 14.5974 78.8471 15.0449 78.8267 15.5344C78.8064 16.0239 78.6622 16.5226 78.3941 17.0305L78.3391 17.1347C78.071 17.6426 77.7398 18.0447 77.3456 18.3408C76.9529 18.6338 76.5279 18.8008 76.0706 18.8418C75.6133 18.8829 75.1496 18.7793 74.6795 18.5312ZM75.0642 17.8024C75.3607 17.9589 75.6509 18.0092 75.9346 17.9532C76.2231 17.8957 76.4919 17.7532 76.7411 17.5256C76.9951 17.2966 77.217 17.0023 77.4068 16.6426L77.4618 16.5385C77.6516 16.1788 77.7685 15.8311 77.8126 15.4953C77.8615 15.1581 77.8275 14.8557 77.7105 14.5882C77.5951 14.3176 77.3876 14.1032 77.0879 13.945C76.7913 13.7885 76.4987 13.739 76.2102 13.7964C75.9234 13.8508 75.6545 13.9933 75.4037 14.224C75.1545 14.4515 74.935 14.7451 74.7452 15.1048L74.6903 15.2089C74.5004 15.5686 74.3811 15.917 74.3322 16.2543C74.2849 16.5884 74.319 16.8907 74.4343 17.1614C74.5545 17.4305 74.7644 17.6442 75.0642 17.8024Z" fill="#2A3739"/>
<path d="M80.0778 21.5359L82.0224 16.6469L81.5627 16.1849L81.9861 15.6533L83.8571 17.1437L83.4336 17.6753L82.8036 17.3239L81.6301 20.0768L81.3456 20.7259L81.3707 20.7459L81.9817 20.3569L85.2593 18.2607L85.9541 18.8142L84.6044 22.4324L84.2985 23.2287L84.3236 23.2487L85.0271 22.7692L87.453 21.0208L86.9538 20.4794L87.3772 19.9478L89.2063 21.4049L88.7829 21.9365L88.2239 21.6075L83.9244 24.6001L83.1417 23.9766L84.3923 20.5257L84.7548 19.624L84.7264 19.6082L83.9361 20.1623L80.7852 22.0994L80.0778 21.5359Z" fill="#2A3739"/>
<path d="M85.5859 26.0504L86.0976 25.6113L86.7793 26.1758L89.9189 23.4823L89.4646 22.7228L89.9804 22.2802L91.1617 23.6571L90.5565 24.2749C90.9148 24.2214 91.2517 24.2497 91.5671 24.3598C91.8876 24.4703 92.1686 24.6664 92.4102 24.948C92.8167 25.4218 92.992 25.9084 92.9361 26.4076C92.8829 26.9044 92.5666 27.4014 91.9872 27.8985L89.8386 29.7418L90.2929 30.5014L89.7811 30.9404L87.9588 28.8162L88.4705 28.3772L89.1522 28.9417L91.2845 27.1124C91.6717 26.7802 91.8803 26.4672 91.9104 26.1735C91.9427 25.8825 91.8242 25.58 91.5547 25.2659C91.3573 25.0357 91.1264 24.8789 90.8621 24.7954C90.6001 24.7147 90.3276 24.704 90.0448 24.7633L87.4657 26.9759L87.92 27.7355L87.4082 28.1745L85.5859 26.0504Z" fill="#2A3739"/>
<path d="M94.6105 39.532L95.6138 39.1296L96.0063 40.1081L95.003 40.5105L94.6105 39.532Z" fill="#2A3739"/>
<rect x="48.4725" y="41.8016" width="15.0853" height="28.3959" rx="7.54266" stroke="#2A3739" stroke-width="0.887372"/>
<rect x="54.418" y="48.1445" width="3.19454" height="5.85665" rx="1.59727" fill="#2A3739"/>
</svg>
